<svg width="158" height="83" viewBox="0 0 158 83" fill="none" xmlns="http://www.w3.org/2000/svg">
<path d="M93.7677 41.5809C93.7677 42.2446 93.7499 42.9083 93.7677 43.5731C93.9647 50.3255 92.1351 56.4092 89.1974 62.1456C88.2125 64.0694 87.2711 66.0258 86.4229 68.0353C85.7229 69.6874 84.7504 70.8453 83.2376 71.5223C82.393 71.8991 81.6095 72.5526 80.9015 73.2255C77.6416 76.3265 73.9435 78.5474 69.9881 80.1117C67.3609 81.1502 64.6556 82.064 61.8013 82.0232C60.9504 82.012 60.0977 82.3132 59.2451 82.3162C58.3924 82.3193 57.5406 82.0007 56.696 82.0426C53.0156 82.2243 49.6058 80.9194 46.2209 79.5501C42.5263 78.0573 39.2639 75.6986 36.1948 72.8875C31.8641 68.9226 28.7782 63.9285 26.5094 58.2114C25.2868 55.1297 24.2913 51.9491 24.01 48.5294C23.963 47.9617 23.7997 47.4001 23.6551 46.8497C22.6259 43.0135 23.2177 39.2518 23.8547 35.4299C24.3418 32.5065 24.8431 29.6189 25.7916 26.8435C28.299 19.5029 32.2811 13.4918 37.7963 8.77027C42.3941 4.83806 47.5403 2.42114 53.1354 1.3827C59.5556 0.191086 65.8233 1.0488 71.9046 3.83331C74.939 5.2271 77.8022 6.99255 80.3026 9.32983C82.6352 11.5099 84.7389 14.0605 86.7264 16.6674C88.5275 19.0302 89.8061 21.8443 90.948 24.7156C92.7314 29.2012 93.8937 33.8441 93.7757 38.8322C93.7499 39.7542 93.7686 40.6681 93.7677 41.5809ZM91.3029 32.4932C91.1254 30.9259 91.0145 29.1093 90.6818 27.3469C89.7342 22.2752 87.1851 18.3164 83.7877 15.0837C81.8588 13.2457 79.756 11.6487 77.6833 10.0242C76.9815 9.4738 76.1661 8.96837 75.3463 8.79886C73.239 8.35163 71.1078 7.934 68.9722 7.80841C65.2652 7.59092 61.9353 6.48916 59.1368 3.51983C57.0766 1.33573 54.8336 1.12436 52.6926 3.04707C50.2659 5.22403 47.5039 6.50243 44.6886 7.76756C42.6257 8.69471 40.6391 9.86284 38.6552 11.0167C36.9978 11.9826 36.0324 13.4887 36.0555 15.7698C36.0688 17.0493 35.5595 18.1183 34.5312 18.827C33.673 19.4216 32.8488 20.0788 32.0637 20.7946C29.8695 22.7837 28.1597 25.024 27.7906 28.5008C27.4987 31.2506 26.7765 33.9687 25.1404 36.2335C24.5937 37.0128 24.2547 37.9575 24.1644 38.9537C24.0135 41.0091 24.0756 43.0891 24.12 45.1568C24.1324 45.7102 24.3409 46.3035 24.5867 46.7905C25.1518 47.9413 25.7672 49.0584 26.4304 50.1376C28.0364 52.7098 29.433 55.3452 29.7559 58.6127C30.0682 61.7781 31.3956 64.3573 33.6413 66.326C36.894 69.1789 40.0296 72.2075 43.3311 74.9858C45.1056 76.4828 47.0052 77.7918 49.3459 78.0951C51.6865 78.3983 53.9809 79.1325 56.0793 80.4905C56.5192 80.7635 57.0017 80.9339 57.4989 80.9919C60.4597 81.3595 63.2005 80.515 65.8002 78.9191C66.6156 78.4187 67.4549 77.9644 68.2987 77.5294C70.3306 76.4817 72.5833 75.7935 74.3534 74.3344C76.3223 72.7078 78.4278 71.9859 80.6876 71.5315C81.6636 71.3344 82.4622 70.8708 83.0974 70.0346C83.856 69.0421 84.5579 67.9924 85.3484 67.0336C86.1656 66.0442 86.7556 64.9914 86.8985 63.5813C87.1176 61.4197 87.9206 59.5112 88.9392 57.6774C90.664 54.5794 91.6445 51.1557 92.1546 47.5155C92.2886 46.5608 92.3649 45.7531 91.9541 44.9127C90.767 42.4876 91.2514 39.7338 90.8761 37.1525C90.6862 35.7566 91.1236 34.2301 91.3073 32.4902L91.3029 32.4932ZM77.0135 8.26585C76.5122 7.62767 76.3533 7.3387 76.1262 7.16001C75.7163 6.83326 75.2691 6.56676 74.8335 6.28392C71.1069 3.86598 67.0255 2.69071 62.8554 1.84627C62.0178 1.67575 61.1367 1.75233 60.2823 1.79011C60.0596 1.7993 59.7943 2.04844 59.6532 2.27308C59.5884 2.37519 59.734 2.73258 59.8573 2.9031C60.7849 4.17638 61.9947 5.13683 63.3584 5.6825C65.7126 6.65854 68.1876 7.19392 70.689 7.26825C71.7484 7.30195 72.8052 7.53271 73.8601 7.69813C74.7598 7.84516 75.6586 8.02181 77.0135 8.26585ZM45.3532 77.949C42.852 75.5944 40.6595 73.49 38.4281 71.4416C36.5808 69.7466 34.6936 68.1088 32.8055 66.474C32.5934 66.2903 32.2589 66.2954 31.7949 66.1575C34.0698 70.5564 41.6666 77.2394 45.3532 77.949ZM28.5013 23.0032C30.0097 21.6758 31.4053 20.279 32.9377 19.1231C35.0857 17.5108 35.9073 15.5064 35.3998 12.0653C33.8755 13.501 32.7886 15.2307 31.613 16.8022C30.3708 18.4594 29.4498 20.4332 28.4144 22.2885C28.3345 22.4386 28.4641 22.7347 28.5013 23.0032ZM79.3727 73.2051C77.9655 73.0938 76.5485 73.3797 75.6657 74.2548C73.9905 75.914 71.9977 76.7482 69.9703 77.5784C68.9056 78.0134 67.9021 78.6526 66.8995 79.2622C66.7611 79.3459 66.7354 79.7942 66.7638 80.0586C66.7735 80.1475 67.1488 80.2935 67.3032 80.2332C69.1239 79.5185 71.0049 78.9426 72.7289 77.9868C74.8432 76.8187 76.828 75.3391 78.851 73.9668C79.063 73.83 79.1748 73.5063 79.3727 73.2051ZM25.6142 50.1958C25.2096 51.5692 25.2894 52.3299 25.5441 53.1396C26.2494 55.386 26.678 57.757 27.9494 59.7195C28.4206 60.4476 28.5173 62.0752 29.3868 61.7239C30.1525 61.4176 29.2564 60.129 29.204 59.26C29.0035 55.9405 27.4881 53.2652 25.6142 50.1958ZM39.263 8.85707L39.452 9.18483C40.5034 8.73555 41.5645 8.31079 42.6053 7.82985C44.8672 6.78494 47.1221 5.72062 49.3698 4.63691C49.8232 4.41635 50.2384 4.06305 50.6253 3.70567C50.7335 3.60356 50.714 3.26048 50.6803 3.04809C50.6626 2.95313 50.4487 2.85 50.3254 2.84387C50.1145 2.84917 49.9054 2.88905 49.7043 2.96232C46.6486 3.96196 43.7667 5.44152 41.0091 7.23762C40.3641 7.65831 39.8406 8.31181 39.263 8.85707ZM92.9292 44.5084C93.1138 44.2613 93.2584 44.1581 93.2682 44.0417C93.5663 40.425 93.2336 36.841 92.8032 33.2662C92.7819 33.0865 92.5655 32.8292 92.4182 32.8077C92.2558 32.7832 92.0029 32.9384 91.9044 33.1059C91.7426 33.3711 91.6418 33.6792 91.6116 34.0014C91.4495 36.9496 91.6183 39.9097 92.1138 42.8083C92.2114 43.3934 92.632 43.908 92.9292 44.5084ZM24.876 34.5283C26.0684 34.0044 26.2468 33.0559 26.3746 32.2002C26.686 30.1121 27.465 28.1026 27.2077 25.895C25.9611 28.5294 24.8556 31.1985 24.8768 34.5283H24.876ZM53.7369 80.367C51.0636 79.0049 50.3387 78.8619 47.9591 79.2438C48.9679 79.6839 49.8756 80.3833 50.7886 80.3945C51.7406 80.4109 52.7716 81.7536 53.7378 80.367H53.7369Z" fill="#2E2520"/>
<path d="M59.2495 53.2806C57.4217 53.2428 56.1663 52.3616 55.2364 50.6594C54.3704 49.0716 52.9295 48.2476 51.6102 47.2694C49.9465 46.037 48.5934 44.6462 48.2093 42.1476C47.9431 40.4536 48.2527 38.9823 48.8499 37.6446C49.3512 36.5265 50.2455 35.4881 51.1852 34.8234C52.2037 34.1025 53.0484 33.4224 53.5187 32.0909C54.051 30.5593 55.3926 30.4664 56.5806 30.1907C57.6995 29.9313 58.8369 29.7649 59.9398 29.4402C61.4482 28.997 62.8172 29.1338 63.9192 30.4868C64.771 31.5365 65.7656 32.289 66.8747 32.9262C68.0281 33.5878 68.4088 34.3608 68.0476 35.7434C67.8019 36.6817 68.0396 37.3209 68.3431 38.0704C68.6749 38.8873 69.0165 39.7174 69.2446 40.5803C70.0041 43.4516 69.1301 45.8685 66.7913 47.1469C65.3415 47.9392 64.2315 48.995 63.8704 50.8524C63.7258 51.6009 63.3203 52.0256 62.7471 52.2196C61.5901 52.6097 60.4163 52.9313 59.2495 53.2806ZM66.9226 41.2429C66.9598 36.1845 63.6308 32.1399 59.3019 32.1338C55.4174 32.1338 51.5099 35.1613 51.3582 40.9632C51.2366 45.6071 54.5949 49.9324 58.9727 49.9487C64.3043 49.9794 66.8188 45.7153 66.9226 41.2429ZM51.3156 46.0788C51.3156 45.4304 51.3697 45.0986 51.3076 44.7994C50.7335 42.0516 50.36 39.3304 51.6625 36.6838C51.7565 36.4939 51.5401 36.1018 51.4673 35.8036C51.2118 35.8986 50.903 35.918 50.7096 36.1007C48.558 38.1347 47.5979 43.0186 51.3156 46.0788ZM59.3063 30.8646C60.2069 31.2444 60.7206 31.514 61.2583 31.6815C63.2413 32.2859 64.9333 33.3724 66.1107 35.3758C66.3432 35.7699 66.6431 36.356 67.0867 35.9067C67.3227 35.6668 67.3999 34.9336 67.2642 34.5671C67.0805 34.08 66.6635 33.4724 66.2625 33.3765C65.1729 33.114 64.5767 32.2053 63.8668 31.4129C62.6726 30.0926 61.339 29.6781 59.3063 30.8646ZM59.1839 50.7758L59.1572 50.5849C58.5858 50.5849 58.0091 50.5287 57.4466 50.6084C57.1573 50.6492 56.8947 50.932 56.6205 51.1056C56.8699 51.3599 57.0872 51.7601 57.3747 51.8429C58.9115 52.2891 60.4606 52.3851 61.9761 51.7019C62.2352 51.5845 62.5235 51.4314 62.6859 51.1914C62.8296 50.9872 62.8767 50.6247 62.8474 50.35C62.8358 50.2479 62.4774 50.0937 62.2999 50.1264C61.2592 50.3143 60.2228 50.5512 59.1883 50.7728L59.1839 50.7758ZM67.0433 45.5877C68.108 45.36 68.5835 44.6687 68.6457 43.6057C68.6916 42.7098 68.6804 41.8112 68.6119 40.9172C68.5951 40.6813 68.3094 40.471 68.147 40.2484C67.9101 40.5067 67.4292 40.8539 67.4727 41.0091C67.9048 42.5601 67.0015 43.9488 67.0433 45.5846V45.5877Z" fill="#2E2520"/>
<path d="M76.7828 52.5913C76.7215 52.6271 76.4749 52.865 76.2078 52.8977C75.9647 52.9303 75.6098 52.8364 75.459 52.6403C74.7021 51.657 73.9675 50.6462 73.2905 49.5893C73.113 49.3126 73.0403 48.5682 73.1414 48.5039C73.4742 48.2925 74.1245 48.072 74.2691 48.2548C75.1254 49.3422 75.8786 50.5379 76.6523 51.7101C76.7278 51.8276 76.7047 52.0287 76.7828 52.5913Z" fill="#2E2520"/>
<path d="M40.5353 61.1082C40.931 61.145 41.7127 61.1726 42.4749 61.3227C42.6647 61.3604 42.9185 61.7883 42.9185 62.0435C42.9185 62.2988 42.6993 62.7399 42.5095 62.794C41.0277 63.2178 39.5531 63.3219 38.2417 62.1814C38.1677 62.1019 38.1103 62.0041 38.0742 61.8952C38.0381 61.7864 38.024 61.6695 38.0332 61.5534C38.0616 61.3829 38.2914 61.145 38.4458 61.1327C39.0145 61.0776 39.585 61.1082 40.5353 61.1082Z" fill="#2E2520"/>
<path d="M86.9677 25.2006L87.5284 25.5539C87.3696 25.8817 87.272 26.4086 87.0405 26.5035C85.9735 26.9551 84.8788 27.3148 83.7655 27.5798C83.4452 27.6522 82.9803 27.2898 82.6849 26.9906C82.3442 26.6444 82.5473 25.8929 82.9768 25.8174C84.2393 25.5937 85.5108 25.4222 86.9677 25.2006Z" fill="#2E2520"/>
<path d="M49.2509 68.4192C49.8436 68.7378 50.3396 68.8277 50.5818 69.1677C51.2451 70.1153 51.8519 71.1135 52.398 72.1554C52.6642 72.6516 52.4211 73.1887 51.973 73.3317C51.7273 73.4103 51.2819 73.1795 51.1009 72.9232C50.3776 71.9205 49.7074 70.8686 49.0939 69.7732C48.9519 69.5128 49.1719 68.99 49.2509 68.4192Z" fill="#2E2520"/>
<path d="M72.5061 28.9061C72.5434 28.6161 72.5061 28.2843 72.6242 28.1567C72.7839 27.9892 73.1263 27.8503 73.2905 27.9412C73.515 28.0648 73.6605 28.4038 73.8149 28.6703C74.2443 29.4116 74.6693 30.157 75.0783 30.9167C75.2611 31.2567 75.5069 31.6192 75.522 31.9857C75.5397 32.3247 75.3605 32.7648 75.1387 32.9976C75.0153 33.1283 74.5069 33.0436 74.3818 32.8629C73.562 31.6631 72.5789 30.5399 72.5061 28.9061Z" fill="#2E2520"/>
<path d="M75.057 16.1589C74.8796 17.3842 74.8086 18.2858 74.6019 19.1496C74.4723 19.6163 74.2253 20.0282 73.8921 20.3331C73.6569 20.5516 73.247 20.5199 72.9161 20.5996C72.8894 20.2432 72.7927 19.8716 72.8486 19.5336C73.0216 18.49 73.2532 17.4587 73.4608 16.4233C73.4768 16.3427 73.4724 16.2569 73.4928 16.1783C73.656 15.5534 74.0092 15.0775 74.5744 15.3359C74.8592 15.4666 74.9923 16.0394 75.057 16.1589Z" fill="#2E2520"/>
<path d="M59.7588 24.1274C60.2574 24.1989 60.9025 24.2377 61.5183 24.4093C61.7285 24.4675 62.0391 24.9035 62.0027 25.0914C61.9388 25.4273 61.6957 25.8694 61.4393 25.9695C61.0328 26.1156 60.5977 26.118 60.19 25.9766C59.4802 25.7163 58.8192 25.6295 58.1112 25.9705C57.6462 26.1952 57.2097 25.9593 57.0855 25.4263C56.9196 24.7115 57.3863 24.3654 57.9106 24.2643C58.4696 24.1571 59.0472 24.1744 59.7588 24.1274Z" fill="#2E2520"/>
<path d="M70.8257 59.3305C70.6243 60.3445 70.4708 61.2338 70.2534 62.1028C70.2108 62.2733 69.8985 62.503 69.7672 62.4642C69.5311 62.3979 69.1993 62.1834 69.1514 61.9608C69.0453 61.4801 69.0331 60.9783 69.1159 60.4915C69.2827 59.6011 69.4469 58.7556 69.1337 57.8459C68.9846 57.4098 69.0272 56.7145 69.6021 56.7165C69.9118 56.7165 70.3572 57.1576 70.4965 57.5222C70.7227 58.1052 70.7378 58.7914 70.8257 59.3305Z" fill="#2E2520"/>
<path d="M62.095 59.0701C61.9796 59.308 61.9237 59.5888 61.772 59.7093C60.8377 60.4506 59.9017 61.195 58.9186 61.8434C58.6675 62.0088 58.2265 61.9067 57.9062 61.7975C57.4368 61.6372 57.3392 60.9265 57.7287 60.6385C58.8041 59.8451 59.8857 59.0579 60.9939 58.3268C61.1713 58.2093 61.5262 58.336 61.7552 58.4667C61.9104 58.5565 61.977 58.8465 62.095 59.0701Z" fill="#2E2520"/>
<path d="M50.1914 11.4374C50.3431 11.5395 50.6288 11.6293 50.667 11.7907C51.0379 13.3642 51.3954 14.9428 51.69 16.5357C51.7716 16.9778 51.2632 17.2239 50.9225 16.9594C49.8498 16.1282 49.1817 13.0497 49.8072 11.7621C49.872 11.6344 50.0299 11.5701 50.1914 11.4374Z" fill="#2E2520"/>
<path d="M63.4472 15.9067C63.1242 15.6585 62.7755 15.5319 62.7285 15.3175C62.6779 15.0847 62.8447 14.6875 63.0257 14.5006C63.8129 13.6908 64.6362 12.9287 65.4923 12.2175C65.7807 11.9836 66.3796 11.8182 66.6014 12.001C67.1249 12.4248 66.8498 13.0221 66.4852 13.4591C65.9954 14.0483 65.5092 14.6691 64.9449 15.1449C64.5119 15.5033 63.9565 15.6575 63.4472 15.9067Z" fill="#2E2520"/>
<path d="M43.0498 24.2204L42.2655 25.074C42.0419 24.7952 41.71 24.5635 41.616 24.2306C41.2398 22.9277 40.9248 21.6013 40.6258 20.2718C40.585 20.089 40.7145 19.7153 40.8476 19.652C41.065 19.5499 41.4226 19.5091 41.5876 19.652C41.9132 19.9287 42.285 20.2994 42.3915 20.715C42.671 21.7973 42.8182 22.9287 43.0498 24.2204Z" fill="#2E2520"/>
<path d="M34.4629 46.0604C33.7433 47.5788 33.1967 49.1339 31.857 49.962C31.6316 50.1009 31.133 49.9232 30.8916 49.7016C30.4817 49.3269 30.8916 49.0155 31.0913 48.6959C31.7203 47.6993 32.3015 46.6598 32.9696 45.701C33.1417 45.4549 33.5791 45.3334 33.8764 45.3671C34.0787 45.3886 34.2437 45.7848 34.4629 46.0604Z" fill="#2E2520"/>
<path d="M42.5911 46.1891C42.9664 46.4393 43.2388 46.5138 43.2894 46.6782C43.3728 46.9478 43.4163 47.3715 43.2894 47.5584C43.0835 47.8565 42.7313 48.0281 42.4278 48.2282C41.6408 48.7479 40.8645 49.2963 40.0464 49.7394C39.7971 49.8742 39.3455 49.8334 39.1237 49.6516C38.6667 49.2769 38.8273 48.6765 39.1946 48.412C40.3179 47.6023 41.4989 46.8936 42.5911 46.1891Z" fill="#2E2520"/>
<path d="M83.2704 39.3131C82.9812 40.0636 82.5748 41.196 82.093 42.2845C82.0185 42.4529 81.5518 42.5448 81.354 42.4437C81.1703 42.3488 80.9698 41.923 81.007 41.6922C81.2005 40.4822 81.4143 39.2682 81.7399 38.1C81.8393 37.7437 82.2882 37.42 82.6334 37.3005C82.7612 37.2566 83.0957 37.8111 83.2545 38.1501C83.345 38.341 83.2704 38.6351 83.2704 39.3131Z" fill="#2E2520"/>
<path d="M34.2375 30.2907C35.5107 31.6059 35.359 33.3918 35.5001 35.0408C35.5267 35.3472 35.1957 35.7852 34.9313 36.0068C34.7929 36.1232 34.2304 35.9363 34.2171 35.8291C34.0166 34.1637 33.8622 32.4891 33.7388 30.8125C33.7291 30.6696 34.0281 30.495 34.2375 30.2907Z" fill="#2E2520"/>
<path d="M63.9902 71.0148C64.2036 71.0798 64.4137 71.159 64.6192 71.2517C65.3841 71.6602 66.1533 72.0574 66.8995 72.5066C67.2544 72.719 67.6093 72.9845 67.8649 73.3235C68.1585 73.7166 67.8232 74.4712 67.4124 74.3681C66.0247 74.023 64.6689 73.541 63.6308 72.3463C63.4773 72.1697 63.4809 71.7275 63.5306 71.4345C63.5599 71.2691 63.8278 71.1547 63.9902 71.0148Z" fill="#2E2520"/>
<path d="M47.1028 30.7717C47.1765 31.0361 47.4285 31.4466 47.3397 31.7039C46.8739 33.0671 46.3345 34.3986 45.7853 35.7209C45.7178 35.8832 45.4304 36.0272 45.26 36.0007C45.1109 35.9792 44.9051 35.7382 44.8661 35.5555C44.575 34.082 45.4925 31.4446 46.5155 30.7809C46.6211 30.7124 46.7896 30.7717 47.1028 30.7717Z" fill="#2E2520"/>
<path d="M86.7822 53.1427C86.6225 53.0263 86.2898 52.8844 86.1168 52.6097C86.0476 52.5004 86.2712 52.0021 86.4637 51.8429C87.3173 51.1281 88.1886 50.445 89.0971 49.8344C89.342 49.67 89.8513 49.6577 90.0314 49.8425C90.1973 50.0141 90.2222 50.6594 90.0722 50.8963C89.311 52.1175 88.3509 53.0488 86.7822 53.1427Z" fill="#2E2520"/>
<path d="M81.5101 63.6579C80.8518 63.5793 80.5652 63.5711 80.291 63.5006C80.1748 63.471 80.0018 63.3128 80 63.2096C79.9877 62.9773 80.0402 62.7465 80.1499 62.551C80.2912 62.3664 80.4762 62.2333 80.6823 62.1681C81.6973 61.8169 82.7132 61.4646 83.7434 61.1797C83.967 61.1184 84.4381 61.2879 84.4674 61.435C84.5348 61.7842 84.4541 62.2059 84.3352 62.5582C84.2722 62.744 84.0211 62.8992 83.8285 62.9666C82.9466 63.2454 82.0611 63.4945 81.5101 63.6579Z" fill="#2E2520"/>
<path d="M50.9465 55.2186C50.8737 55.5749 50.7557 56.3642 50.5277 57.1086C50.4709 57.2934 50.0273 57.4711 49.8232 57.4037C49.6191 57.3363 49.3796 56.9493 49.3858 56.7073C49.4071 55.3299 49.4665 53.9504 49.5881 52.5791C49.6138 52.2799 49.943 52.0165 50.1329 51.7367C50.36 52.0134 50.7282 52.2574 50.7859 52.575C50.9145 53.2857 50.887 54.0331 50.9465 55.2186Z" fill="#2E2520"/>
<path d="M98.5134 12.1173C98.5134 9.19922 99.1264 6.98665 100.352 5.47953C101.592 3.95638 103.181 3.19481 105.117 3.19481C107.054 3.19481 108.593 3.85217 109.735 5.16688C110.892 6.4816 111.47 8.58194 111.47 11.4679C111.47 14.3539 110.857 16.5344 109.631 18.0094C108.405 19.4845 106.768 20.222 104.72 20.222C102.951 20.222 101.502 19.6368 100.373 18.4664C99.7881 17.8571 99.3284 17.0154 98.994 15.9412C98.6736 14.8509 98.5134 13.5763 98.5134 12.1173ZM105.054 3.43531C103.647 3.43531 102.491 4.1568 101.585 5.59978C100.694 7.04276 100.248 9.15914 100.248 11.9489C100.248 14.7387 100.673 16.7749 101.523 18.0575C102.372 19.3402 103.501 19.9815 104.908 19.9815C106.329 19.9815 107.485 19.26 108.377 17.817C109.283 16.358 109.735 14.2497 109.735 11.492C109.735 8.71822 109.304 6.68202 108.44 5.38333C107.59 4.08465 106.461 3.43531 105.054 3.43531Z" fill="#2E2520"/>
<path d="M115.084 20.1258H113.35V3.29101H115.084V11.035H121.876V3.29101H123.611V20.1258H121.876V11.2755H115.084V20.1258Z" fill="#2E2520"/>
<path d="M132.527 20.1258H132.255L134.073 3.29101H134.763L139.151 18.8512L143.519 3.29101H144.209L146.027 20.1258H144.292L142.85 6.65797L139.068 20.1258H137.751L133.927 6.82631L132.527 20.1258Z" fill="#2E2520"/>
<path d="M157.603 3.29101C157.868 3.59564 158 3.98845 158 4.46944C158 4.87027 157.923 5.27912 157.77 5.69598L154.029 14.426V20.1258H152.295V14.9551L148.115 3.29101H149.892L153.883 14.1374L157.519 5.69598C157.673 5.29515 157.749 4.87829 157.749 4.44539C157.749 4.0125 157.645 3.6758 157.436 3.43531L157.603 3.29101Z" fill="#2E2520"/>
<path d="M2.94608 24.5492C4.0263 24.4927 5.08198 24.4644 6.11311 24.4644C7.16879 24.4644 8.27357 24.5915 9.42745 24.8458C10.6059 25.1001 11.7598 25.5804 12.8891 26.2868C14.043 26.9648 15.0127 27.8548 15.7983 28.9567C16.6085 30.0303 17.2591 31.4572 17.7501 33.2371C18.2411 35.0171 18.4866 37.1785 18.4866 39.7213C18.4866 42.2641 18.1184 44.5527 17.3819 46.5869C16.6699 48.5929 15.6879 50.1327 14.4358 51.2064C12.0053 53.2971 9.07146 54.3425 5.63437 54.3425C4.43139 54.3425 3.16703 54.286 1.8413 54.173H0V24.5492H2.94608ZM3.05655 53.834C3.57212 53.8905 4.22271 53.9187 5.00833 53.9187C5.79395 53.9187 6.38317 53.9046 6.77598 53.8763C7.16879 53.8481 7.7089 53.7351 8.39632 53.5373C9.08374 53.3113 9.72205 53.0146 10.3113 52.6473C10.9005 52.28 11.5142 51.7432 12.1526 51.0368C12.8154 50.3023 13.3801 49.4405 13.8466 48.4517C14.9022 46.1349 15.4301 43.1117 15.4301 39.3823C15.4301 36.7264 15.1477 34.4379 14.5831 32.5167C14.0184 30.5672 13.3678 29.1262 12.6313 28.1939C11.9193 27.2615 11.0478 26.5269 10.0167 25.9901C8.98553 25.425 8.16309 25.1001 7.54932 25.0153C6.93556 24.9306 6.22359 24.8882 5.41342 24.8882C4.60325 24.8882 3.81762 24.9306 3.05655 25.0153V53.834Z" fill="#2E2520"/>
<path d="M99.1112 54.173H98.6324V24.5068H99.8845L115.204 51.9268V24.5068H115.683V54.173H112.995L99.1112 29.5924V54.173Z" fill="#2E2520"/>
<path d="M138.359 24.5068H138.838V41.4589C138.838 45.8947 138.077 49.158 136.555 51.2487C135.033 53.3113 133.044 54.3425 130.589 54.3425C129.042 54.3425 127.729 54.1871 126.649 53.8763C125.568 53.5373 124.55 52.9298 123.592 52.054C121.628 50.3023 120.646 46.7706 120.646 41.4589V24.5068H123.703V41.4165C123.703 46.5587 124.378 49.9915 125.728 51.7149C126.415 52.5625 127.127 53.1417 127.864 53.4525C128.625 53.7633 129.533 53.9187 130.589 53.9187C132.946 53.9187 134.824 52.9298 136.223 50.9521C137.647 48.9461 138.359 45.7676 138.359 41.4165V24.5068Z" fill="#2E2520"/>
<path d="M151.401 54.173H148.344V24.9306H141.973V24.5068H157.809V24.9306H151.401V54.173Z" fill="#2E2520"/>
</svg>
